<svg width="24" height="24" viewBox="0 0 24 24" fill="none" xmlns="http://www.w3.org/2000/svg">
<path d="M9 3.2C9 2.64771 8.55228 2.2 8 2.2C7.44772 2.2 7 2.64771 7 3.2H9ZM7 21.2C7 21.7523 7.44772 22.2 8 22.2C8.55228 22.2 9 21.7523 9 21.2H7ZM7 3.2V21.2H9V3.2H7Z" fill="currentColor"/>
<path d="M5 3.2V7.2C5 8.85685 6.34315 10.2 8 10.2V10.2C9.65685 10.2 11 8.85685 11 7.2V3.2" stroke="currentColor" stroke-width="2" stroke-linecap="round"/>
<path d="M17 13C17 12.4477 16.5523 12 16 12C15.4477 12 15 12.4477 15 13H17ZM15 21C15 21.5523 15.4477 22 16 22C16.5523 22 17 21.5523 17 21H15ZM15 13V21H17V13H15Z" fill="currentColor"/>
<path d="M16 3V2C15.4477 2 15 2.44772 15 3H16ZM20 13V14C20.5523 14 21 13.5523 21 13H20ZM16 13H15C15 13.5523 15.4477 14 16 14V13ZM16 4H17V2H16V4ZM19 6V13H21V6H19ZM20 12H16V14H20V12ZM17 13V3H15V13H17ZM17 4C18.1046 4 19 4.89543 19 6H21C21 3.79086 19.2091 2 17 2V4Z" fill="currentColor"/>
</svg>
